<?xml version="1.0" encoding="utf-8"?>
<!-- Generator: Adobe Illustrator 23.0.0, SVG Export Plug-In . SVG Version: 6.00 Build 0)  -->
<svg version="1.1" id="Ebene_1" xmlns="http://www.w3.org/2000/svg" xmlns:xlink="http://www.w3.org/1999/xlink" x="0px" y="0px"
	 viewBox="0 0 1020 1020" style="enable-background:new 0 0 1020 1020;" xml:space="preserve">
<style type="text/css">
	.st0{fill:url(#Pfad_562_3_);}
	.st1{fill:url(#Pfad_562_4_);}
	.st2{fill:url(#Pfad_562_5_);}
	.st3{fill:url(#Pfad_562_6_);}
	.st4{fill:#FFFFFF;}
	.st5{fill:#001A26;}
	.st6{fill:#C9CFD3;}
	.st7{fill:url(#SVGID_1_);}
	.st8{fill:url(#SVGID_2_);}
	.st9{fill:url(#SVGID_3_);}
	.st10{fill:url(#SVGID_4_);}
	.st11{fill:#CCD7DE;}
	.st12{fill:url(#Pfad_562_10_);}
</style>
<g>
	
		<linearGradient id="Pfad_562_3_" gradientUnits="userSpaceOnUse" x1="617.0157" y1="32.0866" x2="693.5157" y2="32.0866" gradientTransform="matrix(-0.7071 0.7071 0.7071 0.7071 1042.861 346.6144)">
		<stop  offset="0" style="stop-color:#BF134C"/>
		<stop  offset="1" style="stop-color:#E6215A"/>
	</linearGradient>
	<path id="Pfad_562_2_" class="st0" d="M575.2,826.3L575.2,826.3l37.5-37.3v33.2h33.2l-37.4,37.4l0,0.1h-33.2L575.2,826.3z"/>
	
		<linearGradient id="Pfad_562_4_" gradientUnits="userSpaceOnUse" x1="840.5501" y1="710.3273" x2="1004.75" y2="710.3273" gradientTransform="matrix(0.7071 -0.7071 -0.7071 -0.7071 554.2841 1325.6602)">
		<stop  offset="0" style="stop-color:#BF134C"/>
		<stop  offset="1" style="stop-color:#E6215A"/>
	</linearGradient>
	<path id="Pfad_562_8_" class="st1" d="M690.9,112.9v0.3l-80.2,80.2l71.3,0l0,71.3l80.3-80.3l0.3,0V113L690.9,112.9z"/>
	
		<linearGradient id="Pfad_562_5_" gradientUnits="userSpaceOnUse" x1="963.6501" y1="515.4273" x2="1073.05" y2="515.4273" gradientTransform="matrix(0.7071 -0.7071 -0.7071 -0.7071 554.2841 1325.6602)">
		<stop  offset="3.364234e-04" style="stop-color:#027F7A"/>
		<stop  offset="1" style="stop-color:#04A093"/>
		<stop  offset="1" style="stop-color:#04A194;stop-opacity:0.65"/>
	</linearGradient>
	<path id="Pfad_562_7_" class="st2" d="M948.6,250.1h-0.1L895,303.6V256l-47.5,0l53.5-53.5v-0.1l47.7,0V250.1z"/>
	
		<linearGradient id="Pfad_562_6_" gradientUnits="userSpaceOnUse" x1="469.1501" y1="904.3273" x2="578.5501" y2="904.3273" gradientTransform="matrix(0.7071 -0.7071 -0.7071 -0.7071 554.2841 1325.6602)">
		<stop  offset="3.364234e-04" style="stop-color:#027F7A"/>
		<stop  offset="1" style="stop-color:#04A093"/>
		<stop  offset="1" style="stop-color:#04A194;stop-opacity:0.65"/>
	</linearGradient>
	<path id="Pfad_562_1_" class="st3" d="M323.9,324.8l-0.1,0l-53.5,53.5l0-47.5l-47.5,0l53.5-53.5v-0.1h47.7V324.8z"/>
	
		<rect x="17.1" y="356.1" transform="matrix(0.7071 -0.7071 0.7071 0.7071 -215.7055 343.1688)" class="st4" width="578.6" height="151.8"/>
	<g>
		<g>
			<path class="st5" d="M344.1,855.7c-5.8,6.9-5.6,17.5,1.1,24.2l40,40l38.3,38.3c6.6,6.6,17.3,6.9,24.2,1.1L344.1,855.7z"/>
		</g>
		<polygon class="st6" points="445.7,791.9 438.5,767.3 442.9,762.5 440.1,759.7 344.1,855.7 447.6,959.3 543.6,863.2 540.9,860.5 
			536.1,864.9 511.4,857.6 478.4,824.9 		"/>
		
			<rect x="475.7" y="744.7" transform="matrix(0.7071 -0.7071 0.7071 0.7071 -436.2989 582.6284)" class="st6" width="18.9" height="146.5"/>
		
			<linearGradient id="SVGID_1_" gradientUnits="userSpaceOnUse" x1="1985.533" y1="-2082.0688" x2="1406.933" y2="-2082.0688" gradientTransform="matrix(0.7071 -0.7071 -0.7071 -0.7071 -1955.5072 314.4895)">
			<stop  offset="0" style="stop-color:#001A26"/>
			<stop  offset="0.9996" style="stop-color:#052378"/>
		</linearGradient>
		<polygon class="st7" points="455.7,740.5 864.8,331.3 972.1,438.7 563,847.8 		"/>
		<path class="st5" d="M499.6,897.1l27.5-27.5l14.1-9.2l-25-7.5l-32.7-32.7l0,0l-32.7-32.7l-7.5-25l-9.2,14.1l-27.8,27.2
			c0,0-10,10,0,19.9l36.6,36.6l36.6,36.6C489.5,907.1,499.6,897.1,499.6,897.1z"/>
		
			<rect x="488.2" y="733.6" transform="matrix(0.7071 -0.7071 0.7071 0.7071 -421.0072 589.2109)" class="st5" width="25" height="138.5"/>
	</g>
	
		<linearGradient id="SVGID_2_" gradientUnits="userSpaceOnUse" x1="1802.9788" y1="-2074.6038" x2="1047.6788" y2="-2074.6038" gradientTransform="matrix(-0.7071 0.7071 0.7071 0.7071 2981.8203 972.6007)">
		<stop  offset="0" style="stop-color:#001A26"/>
		<stop  offset="0.9996" style="stop-color:#052378"/>
	</linearGradient>
	<polygon class="st8" points="189.4,724.1 669.3,243.5 777.1,243.7 777,351.1 296.7,831.4 	"/>
	<g>
		<path class="st5" d="M675.9,165.5c5.8-6.9,5.6-17.5-1.1-24.2l-40-40l-38.3-38.3c-6.6-6.6-17.3-6.9-24.2-1.1L675.9,165.5z"/>
	</g>
	<polygon class="st6" points="574.4,229.3 581.6,254.1 577.1,258.8 579.9,261.6 675.9,165.5 572.5,62.1 476.4,158.1 479.2,160.9 
		483.9,156.4 508.6,163.5 541.6,196.3 	"/>
	
		<rect x="525.5" y="130" transform="matrix(0.7071 -0.7071 0.7071 0.7071 12.9522 437.8405)" class="st6" width="18.9" height="146.5"/>
	
		<linearGradient id="SVGID_3_" gradientUnits="userSpaceOnUse" x1="660.369" y1="-13217.5234" x2="81.7691" y2="-13217.5234" gradientTransform="matrix(-0.7071 0.7071 0.7071 0.7071 9912.4463 9517.7412)">
		<stop  offset="0" style="stop-color:#001A26"/>
		<stop  offset="0.9996" style="stop-color:#052378"/>
	</linearGradient>
	<polygon class="st9" points="47.9,582.6 457,173.4 564.3,280.8 155.2,689.9 	"/>
	<path class="st5" d="M520.6,124.2l-27.5,27.5l-14.1,9.2l25,7.5l32.7,32.7l0,0l32.7,32.7l7.5,25l9.2-14.1l27.8-27.2
		c0,0,10-10,0-19.9l-36.6-36.6l-36.8-36.8C530.5,114.2,520.6,124.2,520.6,124.2z"/>
	
		<rect x="506.9" y="149.2" transform="matrix(0.7071 -0.7071 0.7071 0.7071 -2.3396 431.2579)" class="st5" width="25" height="138.5"/>
	<g>
		
			<linearGradient id="SVGID_4_" gradientUnits="userSpaceOnUse" x1="-2123.0264" y1="-2209.7949" x2="-2048.9739" y2="-2209.7949" gradientTransform="matrix(1.4514 -1.4514 -1.4514 -1.4514 63.143 -5456.7144)">
			<stop  offset="3.364234e-04" style="stop-color:#027F7A"/>
			<stop  offset="1" style="stop-color:#04A093"/>
			<stop  offset="1" style="stop-color:#04A194;stop-opacity:0.65"/>
		</linearGradient>
		<polygon class="st10" points="296.6,724.5 296.6,832 189.1,832 189.1,724.5 		"/>
		<circle class="st11" cx="242.8" cy="778.2" r="3.4"/>
		<circle class="st11" cx="211.9" cy="747.3" r="3.4"/>
		<circle class="st11" cx="232.5" cy="788.6" r="3.4"/>
		<circle class="st11" cx="222.2" cy="798.8" r="3.4"/>
		<circle class="st11" cx="191.3" cy="829.7" r="3.4"/>
		<circle class="st11" cx="181" cy="840" r="3.4"/>
		<circle class="st11" cx="170.8" cy="850.3" r="3.4"/>
		<circle class="st11" cx="160.4" cy="860.6" r="3.4"/>
		<circle class="st11" cx="181" cy="881.2" r="3.4"/>
		<circle class="st11" cx="201.6" cy="860.6" r="3.4"/>
		<circle class="st11" cx="211.9" cy="850.3" r="3.4"/>
		<circle class="st11" cx="222.3" cy="839.9" r="3.4"/>
		<circle class="st11" cx="273.6" cy="788.6" r="3.4"/>
		<circle class="st11" cx="284" cy="778.2" r="3.4"/>
		<circle class="st11" cx="232.5" cy="767.9" r="4.9"/>
		<circle class="st11" cx="201.6" cy="798.8" r="4.9"/>
		<circle class="st11" cx="191.3" cy="809.1" r="4.9"/>
		<circle class="st11" cx="181.1" cy="798.8" r="2.5"/>
		<circle class="st11" cx="191.3" cy="788.6" r="2.5"/>
		<circle class="st11" cx="139.9" cy="798.9" r="2.5"/>
		<circle class="st11" cx="160.6" cy="778.2" r="2.5"/>
		<circle class="st11" cx="170.8" cy="768" r="2.5"/>
		<circle class="st11" cx="160.4" cy="819.5" r="2.5"/>
		<circle class="st11" cx="119.3" cy="860.6" r="2.5"/>
		<circle class="st11" cx="150.2" cy="829.7" r="2.5"/>
		<circle class="st11" cx="253.1" cy="768" r="3.4"/>
		<circle class="st11" cx="253.1" cy="747.3" r="3.4"/>
		<circle class="st11" cx="242.7" cy="757.7" r="4.9"/>
		<circle class="st11" cx="232.5" cy="747.4" r="4.9"/>
		<circle class="st11" cx="242.8" cy="737.1" r="4.9"/>
		<path class="st11" d="M256.5,730.2c1.6-1.6,1.8-3.9,0.8-5.7h-8.5c-1,1.8-0.6,4.2,0.8,5.7C251.6,732.1,254.6,732.1,256.5,730.2z"/>
		<circle class="st11" cx="181.1" cy="757.7" r="4.9"/>
		<circle class="st11" cx="201.7" cy="737.1" r="4.9"/>
		<path class="st11" d="M215.3,730.2c1.6-1.6,1.8-3.9,0.8-5.7h-8.5c-1,1.8-0.6,4.2,0.8,5.7C210.4,732.1,213.4,732.1,215.3,730.2z"/>
		<circle class="st11" cx="253.1" cy="829.7" r="4.9"/>
		<circle class="st11" cx="242.8" cy="840" r="4.9"/>
		<circle class="st11" cx="232.6" cy="850.3" r="4.9"/>
		<circle class="st11" cx="222.2" cy="860.6" r="4.9"/>
		<circle class="st11" cx="181.1" cy="901.8" r="4.9"/>
		
			<ellipse transform="matrix(0.7071 -0.7071 0.7071 0.7071 -594.9286 387.8943)" class="st11" cx="170.8" cy="912.1" rx="4.9" ry="4.9"/>
		<circle class="st11" cx="263.4" cy="840" r="4.9"/>
		<circle class="st11" cx="253.1" cy="850.3" r="4.9"/>
		<circle class="st11" cx="263.4" cy="819.5" r="4.9"/>
		<circle class="st11" cx="242.8" cy="798.9" r="4.9"/>
		<circle class="st11" cx="232.6" cy="809.1" r="4.9"/>
		<circle class="st11" cx="222.2" cy="819.5" r="4.9"/>
		<circle class="st11" cx="273.6" cy="829.7" r="4.9"/>
		<circle class="st11" cx="284" cy="819.4" r="4.9"/>
		<circle class="st11" cx="284" cy="757.7" r="4.9"/>
		<path class="st11" d="M290.8,743.9c-1.9,1.9-1.9,5,0,6.9c1.6,1.6,3.9,1.8,5.7,0.8v-8.5C294.7,742.2,292.4,742.4,290.8,743.9z"/>
	</g>
	
		<linearGradient id="Pfad_562_10_" gradientUnits="userSpaceOnUse" x1="703.55" y1="531.7272" x2="780.05" y2="531.7272" gradientTransform="matrix(0.7071 -0.7071 -0.7071 -0.7071 554.2841 1325.6602)">
		<stop  offset="3.364234e-04" style="stop-color:#027F7A"/>
		<stop  offset="1" style="stop-color:#04A093"/>
		<stop  offset="1" style="stop-color:#04A194;stop-opacity:0.65"/>
	</linearGradient>
	<path id="Pfad_562_9_" class="st12" d="M729.9,431.5L729.9,431.5l-37.5,37.3v-33.2h-33.2l37.4-37.4V398h33.2L729.9,431.5z"/>
</g>
</svg>
